<svg width="970" height="469" viewBox="0 0 970 469" fill="none" xmlns="http://www.w3.org/2000/svg">
<rect width="969.267" height="469" rx="42.7928" fill="#73DB8C"/>
<path d="M204.517 85.5856L153.826 89.4937L140.027 126.62L125.919 163.426L181.424 108.64M204.517 85.5856L222.454 106.242M204.517 85.5856L181.424 108.64M162.275 329.558L121.722 234.649L190.921 146.439M162.275 329.558L199.396 237.44M162.275 329.558L264.782 370.871L282.957 350.214M162.275 329.558L291.253 340.785M222.454 106.242L242.816 129.69L199.396 237.44M222.454 106.242L190.921 146.439M181.424 108.64L190.921 146.439M264.782 206.734L199.396 237.44M264.782 206.734L285.886 237.44M264.782 206.734L304.662 236.382M291.253 340.785L282.957 350.214M291.253 340.785L306.274 342.093M282.957 350.214L295.759 355.239L306.274 342.093M285.886 237.44L304.662 236.382M285.886 237.44L309.94 272.437L333.993 307.435M340.412 299.41L381.933 293.827L358.694 276.551M340.412 299.41L358.694 276.551M340.412 299.41L333.993 307.435M304.662 236.382L394.887 231.299L358.694 276.551M333.993 307.435L361.094 346.865L306.274 342.093" stroke="white" stroke-width="5.3491" stroke-linejoin="round"/>
<path d="M530.278 245.94C522.244 245.94 515.184 244.418 509.098 241.375C503.134 238.332 498.508 233.95 495.222 228.229C491.935 222.387 490.292 215.509 490.292 207.597V180.21C490.292 172.176 491.935 165.299 495.222 159.578C498.508 153.857 503.134 149.475 509.098 146.432C515.184 143.389 522.244 141.868 530.278 141.868C541.841 141.868 551.153 144.972 558.213 151.179C565.273 157.387 568.985 165.847 569.35 176.558H552.918C552.553 170.107 550.362 165.177 546.345 161.769C542.45 158.239 537.094 156.474 530.278 156.474C523.096 156.474 517.375 158.544 513.115 162.682C508.855 166.699 506.724 172.481 506.724 180.027V207.597C506.724 215.144 508.855 220.987 513.115 225.125C517.375 229.264 523.096 231.333 530.278 231.333C537.094 231.333 542.45 229.568 546.345 226.038C550.362 222.508 552.553 217.579 552.918 211.249H569.35C568.985 221.961 565.273 230.42 558.213 236.628C551.153 242.836 541.841 245.94 530.278 245.94ZM616.75 276.979L631.54 237.906L594.293 143.694H612.551L635.922 205.772C636.774 207.841 637.565 210.336 638.295 213.258C639.026 216.057 639.634 218.431 640.121 220.378C640.608 218.431 641.217 216.057 641.947 213.258C642.677 210.336 643.408 207.841 644.138 205.772L666.048 143.694H683.758L634.278 276.979H616.75ZM723.125 276.979V262.007H755.077C760.189 262.007 763.902 260.851 766.214 258.538C768.649 256.225 769.866 252.635 769.866 247.766V234.985L770.231 216.727H766.945L770.049 213.988C770.049 221.291 767.614 227.073 762.745 231.333C757.876 235.593 751.364 237.724 743.209 237.724C732.863 237.724 724.707 234.376 718.743 227.682C712.778 220.865 709.796 211.736 709.796 200.294V179.115C709.796 167.673 712.778 158.604 718.743 151.91C724.707 145.215 732.863 141.868 743.209 141.868C751.364 141.868 757.876 143.998 762.745 148.258C767.614 152.518 770.049 158.3 770.049 165.603L766.945 162.865H770.049V143.694H786.298V247.766C786.298 256.773 783.499 263.894 777.9 269.128C772.422 274.362 764.754 276.979 754.894 276.979H723.125ZM748.139 223.482C754.955 223.482 760.311 221.352 764.206 217.092C768.101 212.832 770.049 206.928 770.049 199.381V180.21C770.049 172.663 768.101 166.76 764.206 162.5C760.311 158.239 754.955 156.109 748.139 156.109C741.201 156.109 735.784 158.178 731.889 162.317C728.115 166.456 726.229 172.42 726.229 180.21V199.381C726.229 207.171 728.115 213.136 731.889 217.274C735.784 221.413 741.201 223.482 748.139 223.482Z" fill="white"/>
<path d="M486.336 343.685C484.51 343.685 482.938 343.38 481.619 342.772C480.326 342.163 479.324 341.288 478.614 340.147C477.904 339.006 477.537 337.649 477.511 336.077H480.935C480.935 337.472 481.404 338.575 482.342 339.386C483.306 340.198 484.637 340.604 486.336 340.604C487.934 340.604 489.176 340.211 490.064 339.424C490.977 338.638 491.433 337.548 491.433 336.153C491.433 335.037 491.129 334.061 490.52 333.224C489.937 332.387 489.087 331.804 487.972 331.474L484.206 330.295C482.304 329.712 480.833 328.736 479.793 327.366C478.779 325.997 478.272 324.387 478.272 322.536C478.272 321.039 478.602 319.746 479.261 318.656C479.946 317.54 480.897 316.678 482.114 316.069C483.331 315.435 484.764 315.118 486.412 315.118C488.847 315.118 490.799 315.803 492.27 317.172C493.741 318.516 494.489 320.317 494.514 322.574H491.091C491.091 321.204 490.672 320.139 489.836 319.378C489.024 318.592 487.87 318.199 486.374 318.199C484.903 318.199 483.749 318.554 482.913 319.264C482.101 319.974 481.695 320.963 481.695 322.231C481.695 323.372 482 324.361 482.608 325.198C483.217 326.035 484.092 326.631 485.233 326.986L489.037 328.203C490.888 328.786 492.321 329.775 493.335 331.17C494.349 332.565 494.857 334.201 494.857 336.077C494.857 337.599 494.502 338.93 493.791 340.071C493.081 341.212 492.08 342.1 490.786 342.734C489.519 343.368 488.035 343.685 486.336 343.685ZM508.992 343.685C507.344 343.685 505.898 343.355 504.656 342.696C503.438 342.036 502.487 341.111 501.803 339.919C501.143 338.702 500.814 337.294 500.814 335.697V329.991C500.814 328.368 501.143 326.961 501.803 325.769C502.487 324.577 503.438 323.651 504.656 322.992C505.898 322.333 507.344 322.003 508.992 322.003C510.64 322.003 512.073 322.333 513.29 322.992C514.533 323.651 515.484 324.577 516.143 325.769C516.828 326.961 517.17 328.368 517.17 329.991V333.681H504.161V335.697C504.161 337.345 504.579 338.613 505.416 339.501C506.253 340.363 507.445 340.794 508.992 340.794C510.311 340.794 511.376 340.566 512.187 340.109C512.999 339.627 513.493 338.917 513.671 337.979H517.094C516.866 339.729 516.004 341.123 514.507 342.163C513.037 343.178 511.198 343.685 508.992 343.685ZM513.823 331.398V329.991C513.823 328.343 513.404 327.075 512.567 326.187C511.756 325.3 510.564 324.856 508.992 324.856C507.445 324.856 506.253 325.3 505.416 326.187C504.579 327.075 504.161 328.343 504.161 329.991V331.094H514.089L513.823 331.398ZM531.952 343.685C530.278 343.685 528.808 343.368 527.54 342.734C526.297 342.1 525.333 341.187 524.649 339.995C523.964 338.778 523.622 337.345 523.622 335.697V329.991C523.622 328.317 523.964 326.885 524.649 325.693C525.333 324.501 526.297 323.588 527.54 322.954C528.808 322.32 530.278 322.003 531.952 322.003C534.361 322.003 536.301 322.65 537.772 323.943C539.243 325.236 540.016 326.999 540.092 329.23H536.669C536.593 327.886 536.136 326.859 535.299 326.149C534.488 325.414 533.372 325.046 531.952 325.046C530.456 325.046 529.264 325.477 528.376 326.339C527.489 327.176 527.045 328.381 527.045 329.953V335.697C527.045 337.269 527.489 338.486 528.376 339.348C529.264 340.211 530.456 340.642 531.952 340.642C533.372 340.642 534.488 340.274 535.299 339.539C536.136 338.803 536.593 337.776 536.669 336.457H540.092C540.016 338.689 539.243 340.451 537.772 341.745C536.301 343.038 534.361 343.685 531.952 343.685ZM554.57 343.685C552.161 343.685 550.233 342.975 548.788 341.555C547.343 340.109 546.62 338.157 546.62 335.697V322.383H550.043V335.697C550.043 337.269 550.449 338.499 551.26 339.386C552.072 340.249 553.175 340.68 554.57 340.68C555.99 340.68 557.106 340.249 557.917 339.386C558.754 338.499 559.172 337.269 559.172 335.697V322.383H562.596V335.697C562.596 338.157 561.86 340.109 560.39 341.555C558.919 342.975 556.979 343.685 554.57 343.685ZM570.227 343.304V322.383H573.574V326.377H574.373L573.27 328.85C573.27 326.593 573.751 324.894 574.715 323.753C575.704 322.586 577.162 322.003 579.089 322.003C581.296 322.003 583.045 322.7 584.339 324.095C585.657 325.464 586.317 327.328 586.317 329.687V330.942H582.893V329.991C582.893 328.343 582.488 327.087 581.676 326.225C580.89 325.338 579.761 324.894 578.291 324.894C576.845 324.894 575.704 325.338 574.867 326.225C574.056 327.113 573.65 328.368 573.65 329.991V343.304H570.227ZM600.224 343.685C598.575 343.685 597.13 343.355 595.887 342.696C594.67 342.036 593.719 341.111 593.035 339.919C592.375 338.702 592.046 337.294 592.046 335.697V329.991C592.046 328.368 592.375 326.961 593.035 325.769C593.719 324.577 594.67 323.651 595.887 322.992C597.13 322.333 598.575 322.003 600.224 322.003C601.872 322.003 603.305 322.333 604.522 322.992C605.765 323.651 606.716 324.577 607.375 325.769C608.06 326.961 608.402 328.368 608.402 329.991V333.681H595.393V335.697C595.393 337.345 595.811 338.613 596.648 339.501C597.485 340.363 598.677 340.794 600.224 340.794C601.542 340.794 602.607 340.566 603.419 340.109C604.23 339.627 604.725 338.917 604.902 337.979H608.326C608.098 339.729 607.235 341.123 605.739 342.163C604.268 343.178 602.43 343.685 600.224 343.685ZM605.055 331.398V329.991C605.055 328.343 604.636 327.075 603.799 326.187C602.988 325.3 601.796 324.856 600.224 324.856C598.677 324.856 597.485 325.3 596.648 326.187C595.811 327.075 595.393 328.343 595.393 329.991V331.094H605.321L605.055 331.398ZM641.199 350.151L644.28 342.011L636.52 322.383H640.324L645.193 335.316C645.371 335.747 645.535 336.267 645.688 336.876C645.84 337.459 645.967 337.954 646.068 338.359C646.169 337.954 646.296 337.459 646.448 336.876C646.6 336.267 646.753 335.747 646.905 335.316L651.469 322.383H655.159L644.851 350.151H641.199ZM668.648 343.609C666.974 343.609 665.529 343.292 664.311 342.658C663.094 342.024 662.143 341.111 661.459 339.919C660.799 338.702 660.47 337.269 660.47 335.621V330.067C660.47 328.393 660.799 326.961 661.459 325.769C662.143 324.577 663.094 323.664 664.311 323.03C665.529 322.396 666.974 322.079 668.648 322.079C670.321 322.079 671.767 322.396 672.984 323.03C674.201 323.664 675.14 324.577 675.799 325.769C676.484 326.961 676.826 328.381 676.826 330.029V335.621C676.826 337.269 676.484 338.702 675.799 339.919C675.14 341.111 674.201 342.024 672.984 342.658C671.767 343.292 670.321 343.609 668.648 343.609ZM668.648 340.566C670.144 340.566 671.31 340.147 672.147 339.31C672.984 338.473 673.402 337.244 673.402 335.621V330.067C673.402 328.444 672.984 327.214 672.147 326.377C671.31 325.541 670.144 325.122 668.648 325.122C667.177 325.122 666.01 325.541 665.148 326.377C664.311 327.214 663.893 328.444 663.893 330.067V335.621C663.893 337.244 664.311 338.473 665.148 339.31C666.01 340.147 667.177 340.566 668.648 340.566ZM691.418 343.685C689.009 343.685 687.081 342.975 685.636 341.555C684.19 340.109 683.468 338.157 683.468 335.697V322.383H686.891V335.697C686.891 337.269 687.297 338.499 688.108 339.386C688.92 340.249 690.023 340.68 691.418 340.68C692.838 340.68 693.954 340.249 694.765 339.386C695.602 338.499 696.02 337.269 696.02 335.697V322.383H699.444V335.697C699.444 338.157 698.708 340.109 697.237 341.555C695.767 342.975 693.827 343.685 691.418 343.685ZM707.074 343.304V322.383H710.422V326.377H711.221L710.118 328.85C710.118 326.593 710.599 324.894 711.563 323.753C712.552 322.586 714.01 322.003 715.937 322.003C718.144 322.003 719.893 322.7 721.187 324.095C722.505 325.464 723.165 327.328 723.165 329.687V330.942H719.741V329.991C719.741 328.343 719.335 327.087 718.524 326.225C717.738 325.338 716.609 324.894 715.139 324.894C713.693 324.894 712.552 325.338 711.715 326.225C710.904 327.113 710.498 328.368 710.498 329.991V343.304H707.074ZM756.837 343.304V327.595H750.75V324.475H756.837V320.862C756.837 319.214 757.356 317.92 758.396 316.982C759.436 316.018 760.869 315.537 762.694 315.537H768.819V318.656H762.694C761.908 318.656 761.3 318.846 760.869 319.226C760.463 319.581 760.26 320.126 760.26 320.862V324.475H768.819V327.595H760.26V343.304H756.837ZM774.509 343.304V340.185H781.927V325.503H775.46V322.383H785.35V340.185H792.387V343.304H774.509ZM783.258 318.618C782.421 318.618 781.762 318.402 781.28 317.971C780.798 317.54 780.557 316.957 780.557 316.221C780.557 315.46 780.798 314.865 781.28 314.433C781.762 313.977 782.421 313.749 783.258 313.749C784.095 313.749 784.754 313.977 785.236 314.433C785.718 314.865 785.959 315.46 785.959 316.221C785.959 316.957 785.718 317.54 785.236 317.971C784.754 318.402 784.095 318.618 783.258 318.618ZM808.348 343.304C807.131 343.304 806.066 343.063 805.153 342.582C804.24 342.1 803.53 341.415 803.023 340.528C802.516 339.64 802.262 338.6 802.262 337.408V318.656H795.225V315.537H805.686V337.408C805.686 338.271 805.927 338.955 806.408 339.462C806.89 339.944 807.537 340.185 808.348 340.185H815.005V343.304H808.348ZM828.304 343.685C826.655 343.685 825.21 343.355 823.967 342.696C822.75 342.036 821.799 341.111 821.114 339.919C820.455 338.702 820.125 337.294 820.125 335.697V329.991C820.125 328.368 820.455 326.961 821.114 325.769C821.799 324.577 822.75 323.651 823.967 322.992C825.21 322.333 826.655 322.003 828.304 322.003C829.952 322.003 831.385 322.333 832.602 322.992C833.844 323.651 834.795 324.577 835.455 325.769C836.139 326.961 836.482 328.368 836.482 329.991V333.681H823.473V335.697C823.473 337.345 823.891 338.613 824.728 339.501C825.565 340.363 826.757 340.794 828.304 340.794C829.622 340.794 830.687 340.566 831.499 340.109C832.31 339.627 832.805 338.917 832.982 337.979H836.406C836.177 339.729 835.315 341.123 833.819 342.163C832.348 343.178 830.51 343.685 828.304 343.685ZM833.134 331.398V329.991C833.134 328.343 832.716 327.075 831.879 326.187C831.068 325.3 829.876 324.856 828.304 324.856C826.757 324.856 825.565 325.3 824.728 326.187C823.891 327.075 823.473 328.343 823.473 329.991V331.094H833.401L833.134 331.398ZM850.465 343.609C849.045 343.609 847.802 343.393 846.737 342.962C845.697 342.506 844.861 341.872 844.227 341.06C843.618 340.249 843.25 339.285 843.124 338.169H846.547C846.699 338.905 847.105 339.488 847.764 339.919C848.449 340.35 849.349 340.566 850.465 340.566H852.062C853.406 340.566 854.408 340.299 855.067 339.767C855.727 339.209 856.056 338.473 856.056 337.561C856.056 336.673 855.752 335.976 855.144 335.468C854.56 334.936 853.685 334.581 852.519 334.403L849.704 333.947C847.65 333.592 846.116 332.958 845.102 332.045C844.113 331.107 843.618 329.75 843.618 327.975C843.618 326.098 844.214 324.653 845.406 323.639C846.598 322.599 848.385 322.079 850.769 322.079H852.215C854.218 322.079 855.828 322.548 857.045 323.486C858.263 324.425 858.998 325.693 859.252 327.29H855.828C855.676 326.631 855.296 326.111 854.687 325.731C854.078 325.325 853.254 325.122 852.215 325.122H850.769C849.476 325.122 848.525 325.363 847.916 325.845C847.333 326.327 847.041 327.049 847.041 328.013C847.041 328.875 847.295 329.509 847.802 329.915C848.309 330.321 849.108 330.612 850.199 330.79L853.013 331.246C855.27 331.601 856.906 332.261 857.92 333.224C858.96 334.188 859.48 335.583 859.48 337.408C859.48 339.336 858.859 340.857 857.616 341.973C856.399 343.063 854.548 343.609 852.062 343.609H850.465Z" fill="white"/>
</svg>
